<?xml version="1.0" encoding="UTF-8" standalone="no" ?>
<!DOCTYPE svg PUBLIC "-//W3C//DTD SVG 1.1//EN" "http://www.w3.org/Graphics/SVG/1.1/DTD/svg11.dtd">
<svg xmlns="http://www.w3.org/2000/svg" xmlns:xlink="http://www.w3.org/1999/xlink" version="1.1" width="1080" height="1080" viewBox="0 0 1080 1080" xml:space="preserve">
<desc>Created with Fabric.js 5.2.4</desc>
<defs>
</defs>
<rect x="0" y="0" width="100%" height="100%" fill="transparent"></rect>
<g transform="matrix(1 0 0 1 540 540)" id="7d2309e0-2299-4ee0-9e0d-f46e4fd10227"  >
<rect style="stroke: none; stroke-width: 1; stroke-dasharray: none; stroke-linecap: butt; stroke-dashoffset: 0; stroke-linejoin: miter; stroke-miterlimit: 4; fill: rgb(255,255,255); fill-rule: nonzero; opacity: 1; visibility: hidden;" vector-effect="non-scaling-stroke"  x="-540" y="-540" rx="0" ry="0" width="1080" height="1080" />
</g>
<g transform="matrix(1 0 0 1 540 540)" id="1e4430c6-eefc-4d1e-a96c-d36417c468ba"  >
</g>
<g transform="matrix(0.63 0 0 0.63 294.83 540)" id="93ffc80a-56c1-4661-9896-b79ffa836f9c"  >
<path style="stroke: rgb(0,0,0); stroke-width: 0; stroke-dasharray: none; stroke-linecap: butt; stroke-dashoffset: 0; stroke-linejoin: miter; stroke-miterlimit: 4; fill: rgb(155,89,182); fill-rule: nonzero; opacity: 1;" vector-effect="non-scaling-stroke"  transform=" translate(-1000, -1000)" d="M 1088.128906 535.390625 L 1207.539062 535.390625 C 1221.179688 535.390625 1232.238281 546.410156 1232.300781 560.039062 C 1232.300781 560.121094 1232.300781 560.191406 1232.308594 560.261719 L 1237.949219 641.058594 C 1238.078125 642.808594 1239.300781 644.269531 1240.988281 644.710938 C 1266.730469 651.441406 1291.359375 660.878906 1314.570312 672.738281 C 1314.589844 672.738281 1314.601562 672.75 1314.609375 672.761719 C 1316.828125 673.910156 1317.46875 676.78125 1315.960938 678.761719 L 1259.410156 753.039062 C 1258.28125 754.519531 1256.28125 755.050781 1254.570312 754.308594 C 1244.921875 750.101562 1234.96875 746.460938 1224.769531 743.398438 C 1211.710938 739.488281 1198.230469 736.550781 1184.421875 734.660156 C 1176.140625 733.53125 1167.75 732.78125 1159.25 732.421875 C 1155.46875 732.261719 1151.660156 732.179688 1147.828125 732.179688 C 1140.488281 732.179688 1133.210938 732.480469 1126.011719 733.058594 C 1047.589844 739.378906 978.710938 779.480469 933.9375 838.800781 C 900.082031 883.648438 880.007812 939.480469 880.007812 1000 C 880.007812 1147.921875 999.917969 1267.820312 1147.828125 1267.820312 C 1185.78125 1267.820312 1221.871094 1259.929688 1254.578125 1245.699219 C 1256.289062 1244.960938 1258.28125 1245.488281 1259.410156 1246.96875 L 1264.71875 1253.941406 L 1315.929688 1321.199219 C 1317.449219 1323.199219 1316.800781 1326.101562 1314.570312 1327.261719 C 1314.300781 1327.398438 1314.03125 1327.539062 1313.761719 1327.679688 C 1313.398438 1327.871094 1313.039062 1328.050781 1312.671875 1328.230469 C 1301.03125 1334.089844 1289.03125 1339.351562 1276.71875 1343.960938 C 1265.078125 1348.320312 1253.160156 1352.109375 1240.988281 1355.289062 C 1239.300781 1355.730469 1238.078125 1357.199219 1237.949219 1358.941406 L 1232.308594 1439.738281 C 1232.300781 1439.808594 1232.300781 1439.878906 1232.300781 1439.960938 C 1232.238281 1453.578125 1221.179688 1464.609375 1207.539062 1464.609375 L 1088.128906 1464.609375 C 1074.488281 1464.609375 1063.421875 1453.578125 1063.371094 1439.960938 C 1063.371094 1439.878906 1063.359375 1439.808594 1063.359375 1439.738281 L 1057.710938 1358.941406 C 1057.589844 1357.199219 1056.371094 1355.730469 1054.671875 1355.289062 C 1021.949219 1346.730469 990.996094 1333.78125 962.496094 1317.078125 C 960.988281 1316.199219 959.089844 1316.371094 957.769531 1317.511719 L 896.617188 1370.679688 C 896.566406 1370.730469 896.515625 1370.769531 896.460938 1370.828125 C 886.785156 1380.421875 871.167969 1380.390625 861.523438 1370.75 L 810.0625 1319.289062 L 777.085938 1286.308594 C 767.441406 1276.671875 767.414062 1261.039062 777.011719 1251.371094 C 777.058594 1251.320312 777.109375 1251.269531 777.152344 1251.210938 L 830.316406 1190.058594 C 831.464844 1188.75 831.628906 1186.839844 830.75 1185.328125 C 814.054688 1156.828125 801.097656 1125.890625 792.539062 1093.160156 C 792.097656 1091.46875 790.636719 1090.238281 788.890625 1090.121094 L 708.089844 1084.480469 C 708.019531 1084.46875 707.945312 1084.46875 707.878906 1084.46875 C 694.246094 1084.410156 683.21875 1073.351562 683.21875 1059.710938 L 683.21875 940.289062 C 683.21875 926.648438 694.246094 915.589844 707.878906 915.53125 C 707.945312 915.53125 708.019531 915.53125 708.089844 915.519531 L 788.890625 909.878906 C 790.636719 909.761719 792.097656 908.53125 792.539062 906.839844 C 801.097656 874.109375 814.054688 843.171875 830.75 814.660156 C 831.628906 813.160156 831.464844 811.261719 830.316406 809.941406 L 821.355469 799.621094 L 777.152344 748.789062 C 777.109375 748.730469 777.058594 748.679688 777.011719 748.628906 C 767.414062 738.960938 767.441406 723.328125 777.085938 713.691406 L 810.0625 680.710938 L 861.523438 629.25 C 871.167969 619.609375 886.785156 619.578125 896.460938 629.171875 C 896.515625 629.230469 896.566406 629.269531 896.617188 629.320312 L 957.769531 682.488281 C 959.089844 683.628906 960.988281 683.800781 962.496094 682.921875 C 987.117188 668.5 1013.558594 656.859375 1041.410156 648.449219 C 1045.800781 647.121094 1050.21875 645.871094 1054.671875 644.710938 C 1056.371094 644.269531 1057.589844 642.800781 1057.710938 641.058594 L 1058.550781 629.089844 L 1059.25 619.089844 L 1061.339844 589.148438 L 1063.359375 560.261719 C 1063.359375 560.191406 1063.371094 560.121094 1063.371094 560.039062 C 1063.421875 546.410156 1074.488281 535.390625 1088.128906 535.390625" stroke-linecap="round" />
</g>

</svg>